<svg version="1.1" xmlns="http://www.w3.org/2000/svg" xmlns:xlink="http://www.w3.org/1999/xlink" width="199.54573" height="45.64418" viewBox="0,0,199.54573,45.64418"><g transform="translate(-139.56047,-157.17791)"><g data-paper-data="{&quot;isPaintingLayer&quot;:true}" fill-rule="nonzero" stroke="none" stroke-width="1" stroke-linecap="butt" stroke-linejoin="miter" stroke-miterlimit="10" stroke-dasharray="" stroke-dashoffset="0" style="mix-blend-mode: normal"><path d="M169.18938,183.30291v-26.125h10.9375c1.91667,0 3.67187,0.3177 5.26562,0.95312c1.59375,0.63542 2.96875,1.53646 4.125,2.70313c1.15625,1.16667 2.04688,2.54687 2.67188,4.14062c0.625,1.59375 0.9375,3.34896 0.9375,5.26563c0,1.91667 -0.3125,3.67708 -0.9375,5.28125c-0.625,1.60417 -1.51563,2.98437 -2.67188,4.14062c-1.15625,1.15625 -2.53125,2.05208 -4.125,2.6875c-1.59375,0.63542 -3.34895,0.95313 -5.26562,0.95313zM179.93938,177.70916c1.05208,0 1.98437,-0.1823 2.79687,-0.54688c0.82292,-0.36458 1.52605,-0.86979 2.10938,-1.51562c0.59375,-0.64583 1.05208,-1.42708 1.375,-2.34375c0.32292,-0.92708 0.48437,-1.94792 0.48437,-3.0625c0,-1.125 -0.16145,-2.14583 -0.48437,-3.0625c-0.32292,-0.91667 -0.78125,-1.69792 -1.375,-2.34375c-0.58333,-0.65625 -1.28646,-1.16146 -2.10938,-1.51563c-0.8125,-0.36458 -1.74479,-0.54687 -2.79687,-0.54687h-4.40625v14.9375z" fill="#0f37d0"/><path d="M316.0385,183.30291v-26.125h11.76562c1.66667,0 3.17708,0.35937 4.53125,1.07812c1.35417,0.71875 2.41667,1.70833 3.1875,2.96875c0.77083,1.26042 1.15625,2.6823 1.15625,4.26563c0,1.64583 -0.38542,3.125 -1.15625,4.4375c-0.77083,1.30208 -1.82812,2.32812 -3.17187,3.07812c-0.14034,0.07724 -0.28256,0.15044 -0.42665,0.21962l5.84852,10.07726h-7.25l-5.17176,-9.1875h-3.26574v9.1875zM322.08537,169.27166h5.15625c0.64583,0 1.20833,-0.14063 1.6875,-0.42188c0.48958,-0.29167 0.86458,-0.69792 1.125,-1.21875c0.26042,-0.53125 0.39063,-1.1302 0.39063,-1.79687c0,-0.67708 -0.15105,-1.27083 -0.45313,-1.78125c-0.29167,-0.51042 -0.71875,-0.90105 -1.28125,-1.17188c-0.55208,-0.27083 -1.22917,-0.40625 -2.03125,-0.40625h-4.59375z" fill="#0f37d0"/><path d="M267.25047,183.30291v-26.125h11.28125c1.63542,0 3.09375,0.375 4.375,1.125c1.28125,0.73958 2.30208,1.7552 3.0625,3.04687c0.76042,1.29167 1.14063,2.75 1.14063,4.375c0,1.6875 -0.38021,3.19792 -1.14063,4.53125c-0.76042,1.33333 -1.78125,2.38542 -3.0625,3.15625c-1.28125,0.77083 -2.73958,1.15625 -4.375,1.15625h-4.9375v8.73438zM273.48485,169.00603h4.14062c0.55208,0 1.05208,-0.13542 1.5,-0.40625c0.44792,-0.28125 0.8073,-0.65625 1.07813,-1.125c0.27083,-0.46875 0.40625,-1.01562 0.40625,-1.64062c0,-0.64583 -0.13542,-1.19271 -0.40625,-1.64063c-0.27083,-0.44792 -0.63021,-0.79687 -1.07813,-1.04687c-0.44792,-0.25 -0.94792,-0.375 -1.5,-0.375h-4.14062z" fill="#0f37d0"/><path d="M242.53917,183.30291v-26.125h11.28125c1.63542,0 3.09375,0.375 4.375,1.125c1.28125,0.73958 2.30208,1.7552 3.0625,3.04687c0.76042,1.29167 1.14062,2.75 1.14062,4.375c0,1.6875 -0.3802,3.19792 -1.14062,4.53125c-0.76042,1.33333 -1.78125,2.38542 -3.0625,3.15625c-1.28125,0.77083 -2.73958,1.15625 -4.375,1.15625h-4.9375v8.73438zM248.77354,169.00603h4.14063c0.55208,0 1.05208,-0.13542 1.5,-0.40625c0.44792,-0.28125 0.80729,-0.65625 1.07812,-1.125c0.27083,-0.46875 0.40625,-1.01562 0.40625,-1.64062c0,-0.64583 -0.13542,-1.19271 -0.40625,-1.64063c-0.27083,-0.44792 -0.6302,-0.79687 -1.07812,-1.04687c-0.44792,-0.25 -0.94792,-0.375 -1.5,-0.375h-4.14063z" fill="#0f37d0"/><path d="M158.21672,183.30291l-5.67317,-8.21405l-5.63933,8.21405h-7.34375l9.36605,-13.38008l-9.17855,-12.74492h7.71875l5.49398,8.01881l5.25602,-8.01881h7.35938l-9.02331,13.16756l9.39831,12.95744z" fill="#0f37d0"/><path d="M232.8106,202.62631v-13.63917h6.02016c0.93538,0 1.72665,0.13323 2.3738,0.39971c0.65259,0.26648 1.14475,0.64988 1.47649,1.15019c0.33173,0.50032 0.4976,1.10125 0.4976,1.80279c0,0.77767 -0.19306,1.43299 -0.57918,1.96594c-0.27313,0.38238 -0.63585,0.67379 -1.08816,0.8742c0.35918,0.12942 0.68383,0.30027 0.97396,0.51256c0.45137,0.32085 0.79943,0.72056 1.04415,1.19913c0.25016,0.47313 0.37524,1.0088 0.37524,1.60701c0,0.68522 -0.11693,1.28615 -0.35077,1.80278c-0.23384,0.5112 -0.57373,0.94355 -1.01967,1.29703c-0.4405,0.34805 -0.95713,0.60636 -1.54991,0.77495c-0.58734,0.16859 -1.23993,0.25288 -1.95778,0.25288zM235.92672,199.86095h2.98561c0.36436,0 0.67162,-0.0571 0.92178,-0.17131c0.25559,-0.11964 0.4541,-0.29367 0.5955,-0.52208c0.14684,-0.22841 0.22024,-0.50576 0.22024,-0.83205c0,-0.2991 -0.07613,-0.55199 -0.2284,-0.75864c-0.14684,-0.20665 -0.35893,-0.36436 -0.63628,-0.47313c-0.27191,-0.1142 -0.59549,-0.1713 -0.97073,-0.1713h-2.88772zM235.92672,194.46075h2.43906c0.33717,0 0.62541,-0.05438 0.86469,-0.16315c0.24472,-0.1142 0.4269,-0.27191 0.54654,-0.47313c0.12508,-0.20122 0.18762,-0.44321 0.18762,-0.726c0,-0.41875 -0.14411,-0.74776 -0.43234,-0.98704c-0.28279,-0.23928 -0.7097,-0.35893 -1.28071,-0.35893h-2.32486z" fill="#0f37d0"/><path d="M259.42299,202.82209c-1.09309,0 -2.08285,-0.17402 -2.96929,-0.52207c-0.881,-0.35349 -1.63964,-0.84838 -2.27592,-1.48465c-0.63628,-0.63628 -1.12301,-1.38675 -1.46018,-2.25144c-0.33717,-0.86469 -0.50576,-1.80278 -0.50576,-2.8143c0,-1.01696 0.17674,-1.94961 0.53023,-2.79798c0.35892,-0.85381 0.87012,-1.59886 1.53359,-2.23513c0.66346,-0.63628 1.44658,-1.12844 2.34934,-1.47649c0.90276,-0.35349 1.88708,-0.53023 2.95298,-0.53023c0.75048,0 1.46018,0.09788 2.12908,0.29366c0.6689,0.19578 1.27527,0.46226 1.8191,0.79943c0.54926,0.33717 1.01151,0.72601 1.38675,1.16651l-0.62977,2.13015l-1.37695,-0.00107c-0.32085,-0.31542 -0.6553,-0.57646 -1.00335,-0.78311c-0.34261,-0.20665 -0.7097,-0.3698 -1.10126,-0.48945c-0.38612,-0.12508 -0.80214,-0.18762 -1.24808,-0.18762c-0.57102,0 -1.09309,0.10333 -1.56622,0.30998c-0.47313,0.20665 -0.88916,0.49488 -1.24809,0.86468c-0.35892,0.3698 -0.63627,0.80487 -0.83205,1.30519c-0.19034,0.50032 -0.28551,1.04414 -0.28551,1.63148c0,0.5819 0.10333,1.12844 0.30998,1.63964c0.20665,0.50576 0.49216,0.94353 0.85653,1.31333c0.36437,0.3698 0.79671,0.66347 1.29703,0.881c0.50032,0.21209 1.03599,0.31814 1.60701,0.31814c0.40243,0 0.78311,-0.06526 1.14204,-0.19577c0.35892,-0.13052 0.66619,-0.30454 0.92179,-0.52208c0.26103,-0.22296 0.46769,-0.48673 0.61996,-0.79127c0.1341,-0.26359 0.2112,-0.54094 0.23127,-0.83205h-3.32292v-2.59405h6.41172c0.02719,0.14139 0.04623,0.33717 0.0571,0.58733c0.01087,0.24472 0.01903,0.484 0.02447,0.71785c0.01087,0.23385 0.01632,0.41059 0.01632,0.53024c0,0.881 -0.16043,1.68858 -0.48129,2.42274c-0.31542,0.73416 -0.75864,1.36773 -1.32966,1.90068c-0.57102,0.53295 -1.24808,0.94897 -2.03119,1.24808c-0.77767,0.2991 -1.6206,0.44866 -2.52879,0.44866z" fill="#0f37d0"/><path d="M217.38828,202.74051c-1.13116,0 -2.13996,-0.22841 -3.0264,-0.68522c-0.881,-0.46225 -1.57166,-1.09581 -2.07198,-1.90067c-0.50032,-0.8103 -0.75048,-1.73481 -0.75048,-2.77352v-8.39397h3.35269v8.22266c0,0.49489 0.10877,0.94082 0.3263,1.33782c0.22296,0.39156 0.52207,0.70154 0.89731,0.92994c0.38068,0.22841 0.80487,0.34261 1.27256,0.34261c0.4949,0 0.93268,-0.11421 1.31336,-0.34261c0.38611,-0.22841 0.6961,-0.53839 0.92994,-0.92994c0.23384,-0.397 0.35077,-0.84293 0.35077,-1.33782v-8.22266h3.23033v8.39397c0,1.0387 -0.25016,1.96321 -0.75048,2.77352c-0.50032,0.80487 -1.1937,1.43842 -2.08014,1.90067c-0.881,0.45682 -1.87892,0.68522 -2.99378,0.68522z" fill="#0f37d0"/><path d="M291.96178,183.30291v-26.125h18.21875v5.40625h-12.0625v4.85937h10.39062v5.14063h-10.39062v5.3125h12.4375v5.40625z" fill="#0f37d0"/><path d="M195.27992,183.30291v-4.21875l12.1175,-16.09375h-11.14875v-5.8125h19.71875v4.17187l-12.24162,16.39063h12.64787v5.5625z" fill="#0f37d0"/><path d="M221.30635,183.30291v-5.34375h4.40625v-15.45313h-4.40625v-5.32812h15.1875v5.32812h-4.4375v15.45313h4.4375v5.34375z" fill="#0f37d0"/><path d="M170.52271,183.30291v-26.125h10.9375c1.91667,0 3.67187,0.3177 5.26562,0.95312c1.59375,0.63542 2.96875,1.53646 4.125,2.70313c1.15625,1.16667 2.04688,2.54687 2.67188,4.14062c0.625,1.59375 0.9375,3.34896 0.9375,5.26563c0,1.91667 -0.3125,3.67708 -0.9375,5.28125c-0.625,1.60417 -1.51563,2.98437 -2.67188,4.14062c-1.15625,1.15625 -2.53125,2.05208 -4.125,2.6875c-1.59375,0.63542 -3.34895,0.95313 -5.26562,0.95313zM181.27271,177.70916c1.05208,0 1.98437,-0.1823 2.79687,-0.54688c0.82292,-0.36458 1.52605,-0.86979 2.10938,-1.51562c0.59375,-0.64583 1.05208,-1.42708 1.375,-2.34375c0.32292,-0.92708 0.48437,-1.94792 0.48437,-3.0625c0,-1.125 -0.16145,-2.14583 -0.48437,-3.0625c-0.32292,-0.91667 -0.78125,-1.69792 -1.375,-2.34375c-0.58333,-0.65625 -1.28646,-1.16146 -2.10938,-1.51563c-0.8125,-0.36458 -1.74479,-0.54687 -2.79687,-0.54687h-4.40625v14.9375z" fill="#1188ff"/><path d="M317.37183,183.30291v-26.125h11.76562c1.66667,0 3.17708,0.35937 4.53125,1.07812c1.35417,0.71875 2.41667,1.70833 3.1875,2.96875c0.77083,1.26042 1.15625,2.6823 1.15625,4.26563c0,1.64583 -0.38542,3.125 -1.15625,4.4375c-0.77083,1.30208 -1.82812,2.32812 -3.17187,3.07812c-0.14034,0.07724 -0.28256,0.15044 -0.42665,0.21962l5.84852,10.07726h-7.25l-5.17176,-9.1875h-3.26574v9.1875zM323.4187,169.27166h5.15625c0.64583,0 1.20833,-0.14063 1.6875,-0.42188c0.48958,-0.29167 0.86458,-0.69792 1.125,-1.21875c0.26042,-0.53125 0.39063,-1.1302 0.39063,-1.79687c0,-0.67708 -0.15105,-1.27083 -0.45313,-1.78125c-0.29167,-0.51042 -0.71875,-0.90105 -1.28125,-1.17188c-0.55208,-0.27083 -1.22917,-0.40625 -2.03125,-0.40625h-4.59375z" fill="#1188ff"/><path d="M268.5838,183.30291v-26.125h11.28125c1.63542,0 3.09375,0.375 4.375,1.125c1.28125,0.73958 2.30208,1.7552 3.0625,3.04687c0.76042,1.29167 1.14063,2.75 1.14063,4.375c0,1.6875 -0.38021,3.19792 -1.14063,4.53125c-0.76042,1.33333 -1.78125,2.38542 -3.0625,3.15625c-1.28125,0.77083 -2.73958,1.15625 -4.375,1.15625h-4.9375v8.73438zM274.81818,169.00603h4.14062c0.55208,0 1.05208,-0.13542 1.5,-0.40625c0.44792,-0.28125 0.8073,-0.65625 1.07813,-1.125c0.27083,-0.46875 0.40625,-1.01562 0.40625,-1.64062c0,-0.64583 -0.13542,-1.19271 -0.40625,-1.64063c-0.27083,-0.44792 -0.63021,-0.79687 -1.07813,-1.04687c-0.44792,-0.25 -0.94792,-0.375 -1.5,-0.375h-4.14062z" fill="#1188ff"/><path d="M243.8725,183.30291v-26.125h11.28125c1.63542,0 3.09375,0.375 4.375,1.125c1.28125,0.73958 2.30208,1.7552 3.0625,3.04687c0.76042,1.29167 1.14062,2.75 1.14062,4.375c0,1.6875 -0.3802,3.19792 -1.14062,4.53125c-0.76042,1.33333 -1.78125,2.38542 -3.0625,3.15625c-1.28125,0.77083 -2.73958,1.15625 -4.375,1.15625h-4.9375v8.73438zM250.10687,169.00603h4.14063c0.55208,0 1.05208,-0.13542 1.5,-0.40625c0.44792,-0.28125 0.80729,-0.65625 1.07812,-1.125c0.27083,-0.46875 0.40625,-1.01562 0.40625,-1.64062c0,-0.64583 -0.13542,-1.19271 -0.40625,-1.64063c-0.27083,-0.44792 -0.6302,-0.79687 -1.07812,-1.04687c-0.44792,-0.25 -0.94792,-0.375 -1.5,-0.375h-4.14063z" fill="#1188ff"/><path d="M159.55005,183.30291l-5.67317,-8.21405l-5.63933,8.21405h-7.34375l9.36605,-13.38008l-9.17855,-12.74492h7.71875l5.49398,8.01881l5.25602,-8.01881h7.35938l-9.02331,13.16756l9.39831,12.95744z" fill="#1188ff"/><path d="M234.14393,202.62631v-13.63917h6.02016c0.93538,0 1.72665,0.13323 2.3738,0.39971c0.65259,0.26648 1.14475,0.64988 1.47649,1.15019c0.33174,0.50032 0.4976,1.10125 0.4976,1.80279c0,0.77767 -0.19306,1.43299 -0.57917,1.96594c-0.27313,0.38238 -0.63585,0.67379 -1.08816,0.8742c0.35918,0.12942 0.68383,0.30027 0.97396,0.51256c0.45138,0.32085 0.79943,0.72056 1.04415,1.19913c0.25016,0.47313 0.37524,1.0088 0.37524,1.60701c0,0.68522 -0.11692,1.28615 -0.35077,1.80278c-0.23385,0.5112 -0.57373,0.94355 -1.01967,1.29703c-0.4405,0.34805 -0.95713,0.60636 -1.54991,0.77495c-0.58733,0.16859 -1.23992,0.25288 -1.95777,0.25288zM237.26006,199.86095h2.98561c0.36436,0 0.67162,-0.0571 0.92178,-0.17131c0.25559,-0.11964 0.4541,-0.29367 0.59549,-0.52208c0.14684,-0.22841 0.22025,-0.50576 0.22025,-0.83205c0,-0.2991 -0.07613,-0.55199 -0.2284,-0.75864c-0.14684,-0.20665 -0.35893,-0.36436 -0.63628,-0.47313c-0.27191,-0.1142 -0.59549,-0.1713 -0.97073,-0.1713h-2.88772zM237.26006,194.46075h2.43906c0.33717,0 0.6254,-0.05438 0.86468,-0.16315c0.24472,-0.1142 0.4269,-0.27191 0.54655,-0.47313c0.12508,-0.20122 0.18762,-0.44321 0.18762,-0.726c0,-0.41875 -0.14411,-0.74776 -0.43234,-0.98704c-0.28279,-0.23928 -0.70969,-0.35893 -1.28071,-0.35893h-2.32486z" fill="#1188ff"/><path d="M260.75632,202.82209c-1.09309,0 -2.08285,-0.17402 -2.96929,-0.52207c-0.881,-0.35349 -1.63964,-0.84838 -2.27592,-1.48465c-0.63628,-0.63628 -1.12301,-1.38675 -1.46017,-2.25144c-0.33717,-0.86469 -0.50576,-1.80278 -0.50576,-2.8143c0,-1.01696 0.17674,-1.94961 0.53023,-2.79798c0.35892,-0.85381 0.87013,-1.59886 1.53359,-2.23513c0.66346,-0.63628 1.44658,-1.12844 2.34933,-1.47649c0.90276,-0.35349 1.88708,-0.53023 2.95298,-0.53023c0.75048,0 1.46018,0.09788 2.12908,0.29366c0.6689,0.19578 1.27527,0.46226 1.8191,0.79943c0.54926,0.33717 1.01151,0.72601 1.38675,1.16651l-2.00672,2.12909c-0.32085,-0.31542 -0.6553,-0.57646 -1.00335,-0.78311c-0.34261,-0.20665 -0.7097,-0.3698 -1.10126,-0.48945c-0.38612,-0.12508 -0.80214,-0.18762 -1.24808,-0.18762c-0.57102,0 -1.09309,0.10333 -1.56622,0.30998c-0.47313,0.20665 -0.88916,0.49488 -1.24809,0.86468c-0.35892,0.3698 -0.63627,0.80487 -0.83205,1.30519c-0.19034,0.50032 -0.28551,1.04414 -0.28551,1.63148c0,0.5819 0.10333,1.12844 0.30998,1.63964c0.20665,0.50576 0.49216,0.94353 0.85652,1.31333c0.36437,0.3698 0.79671,0.66347 1.29703,0.881c0.50032,0.21209 1.03599,0.31814 1.60701,0.31814c0.40243,0 0.78311,-0.06526 1.14204,-0.19577c0.35892,-0.13052 0.66619,-0.30454 0.92179,-0.52208c0.26103,-0.22296 0.46769,-0.48673 0.61996,-0.79127c0.1341,-0.26359 0.2112,-0.54094 0.23127,-0.83205h-3.32292v-2.59405h6.41172c0.02719,0.14139 0.04623,0.33717 0.0571,0.58733c0.01087,0.24472 0.01903,0.484 0.02447,0.71785c0.01087,0.23385 0.01632,0.41059 0.01632,0.53024c0,0.881 -0.16043,1.68858 -0.48129,2.42274c-0.31542,0.73416 -0.75864,1.36773 -1.32966,1.90068c-0.57102,0.53295 -1.24808,0.94897 -2.03119,1.24808c-0.77767,0.2991 -1.6206,0.44866 -2.52879,0.44866z" fill="#1188ff"/><path d="M218.72162,202.74051c-1.13116,0 -2.13996,-0.22841 -3.0264,-0.68522c-0.881,-0.46225 -1.57166,-1.09581 -2.07198,-1.90067c-0.50032,-0.8103 -0.75048,-1.73481 -0.75048,-2.77352v-8.39397h3.35269v8.22266c0,0.49489 0.10877,0.94082 0.3263,1.33782c0.22296,0.39156 0.52208,0.70154 0.89731,0.92994c0.38068,0.22841 0.80487,0.34261 1.27256,0.34261c0.4949,0 0.93267,-0.11421 1.31335,-0.34261c0.38611,-0.22841 0.6961,-0.53839 0.92994,-0.92994c0.23385,-0.397 0.35077,-0.84293 0.35077,-1.33782v-8.22266h3.23033v8.39397c0,1.0387 -0.25016,1.96321 -0.75048,2.77352c-0.50032,0.80487 -1.1937,1.43842 -2.08014,1.90067c-0.881,0.45682 -1.87892,0.68522 -2.99377,0.68522z" fill="#1188ff"/><path d="M293.29511,183.30291v-26.125h18.21875v5.40625h-12.0625v4.85937h10.39062v5.14063h-10.39062v5.3125h12.4375v5.40625z" fill="#1188ff"/><path d="M196.61325,183.30291v-4.21875l12.1175,-16.09375h-11.14875v-5.8125h19.71875v4.17187l-12.24162,16.39063h12.64787v5.5625z" fill="#1188ff"/><path d="M222.63968,183.30291v-5.34375h4.40625v-15.45313h-4.40625v-5.32812h15.1875v5.32812h-4.4375v15.45313h4.4375v5.34375z" fill="#1188ff"/></g></g></svg>